# xmcd CD database file
#
# Track frame offsets:
#	150
#	15221
#	29206
#	44165
#	61347
#
# Disc length: 989 seconds
#
# Revision: 0
# Processed by: cddbd v1.5.2PL0 Copyright (c) Steve Scherf et al.
# Submitted via: CDex 1.51
#
DISCID=3f03db05
DTITLE=SaraBeth - SaraBeth
DYEAR=2015
DGENRE=Country
TTITLE0=You Rock My Rodeo
TTITLE1=Runnin' Outta Lipstick
TTITLE2=Do What You Say You're Gonna Do
TTITLE3=You Keep Me Smilin'
TTITLE4=I'm Sick Of It
EXTD=YEAR: 2015
EXTT0=
EXTT1=
EXTT2=
EXTT3=
EXTT4=
PLAYORDER=
